<?xml version="1.0" encoding="utf-8"?>
<!-- Generator: Adobe Illustrator 17.1.0, SVG Export Plug-In . SVG Version: 6.00 Build 0)  -->
<!DOCTYPE svg PUBLIC "-//W3C//DTD SVG 1.1//EN" "http://www.w3.org/Graphics/SVG/1.1/DTD/svg11.dtd">
<svg version="1.1" id="Layer_1" xmlns="http://www.w3.org/2000/svg" xmlns:xlink="http://www.w3.org/1999/xlink" x="0px" y="0px"
	 width="771px" height="282px" viewBox="-285.5 9 771 282" enable-background="new -285.5 9 771 282" xml:space="preserve">
<path fill="#181818" d="M125.8,127.8l27.4-27.4l-7-7.4l-27.6,27.6 M96,87.4h10.2v29.4H96V87.4z M130.6,139.2h30v10.4h-30V139.2z
	 M100.2,162.6c-5.6,0-12.6-4.4-12.6-12.6c0-4.4,3-12.6,12.6-12.6c7.8,0,12.6,6,12.6,12.6C112.6,158.2,105.8,162.6,100.2,162.6z
	 M123.6,150c0-14.2-11.6-24-23.8-24c-14.2,0-23.6,11.8-23.6,24c0,13.8,11.6,24,23.6,24C112.4,173.8,123.6,164,123.6,150z"/>
</svg>
