<?xml version="1.0" encoding="utf-8"?>
<!-- Generator: Adobe Illustrator 17.1.0, SVG Export Plug-In . SVG Version: 6.00 Build 0)  -->
<!DOCTYPE svg PUBLIC "-//W3C//DTD SVG 1.1//EN" "http://www.w3.org/Graphics/SVG/1.1/DTD/svg11.dtd">
<svg version="1.1" id="Layer_1" xmlns="http://www.w3.org/2000/svg" xmlns:xlink="http://www.w3.org/1999/xlink" x="0px" y="0px"
	 width="60px" height="60px" viewBox="0 0 60 60" enable-background="new 0 0 60 60" xml:space="preserve">
<polygon fill="#3A3A3A" points="41.6,23.7 55.2,10 51.7,6.3 37.9,20.1 "/>
<rect x="26.7" y="3.5" fill="#3A3A3A" width="5.1" height="14.7"/>
<rect x="44" y="29.4" fill="#3A3A3A" width="15" height="5.2"/>
<path fill="#3A3A3A" d="M28.7,41.1c-2.8,0-6.3-2.2-6.3-6.3c0-2.2,1.5-6.3,6.3-6.3c3.9,0,6.3,3,6.3,6.3C35,38.9,31.6,41.1,28.7,41.1z
	 M40.5,34.8c0-7.1-5.8-12-11.9-12c-7.1,0-11.8,5.9-11.8,12c0,6.9,5.8,12,11.8,12C34.8,46.7,40.5,41.8,40.5,34.8z"/>
</svg>
