<?xml version="1.0" standalone="no"?>
<!DOCTYPE svg PUBLIC "-//W3C//DTD SVG 1.1//EN" "http://www.w3.org/Graphics/SVG/1.1/DTD/svg11.dtd" >
<svg xmlns="http://www.w3.org/2000/svg">
<metadata></metadata>
<defs>
<font id="din-lightregular" horiz-adv-x="1052" >
<font-face units-per-em="2048" ascent="1638" descent="-410" />
<missing-glyph horiz-adv-x="522" />
<glyph horiz-adv-x="2048" />
<glyph horiz-adv-x="2048" />
<glyph unicode="&#xd;" horiz-adv-x="2048" />
<glyph unicode=" "  horiz-adv-x="522" />
<glyph unicode="&#x09;" horiz-adv-x="522" />
<glyph unicode="&#xa0;" horiz-adv-x="522" />
<glyph unicode="!" horiz-adv-x="622" d="M272 0v137h138v-137h-138zM285 1458h112l-6 -1065h-100z" />
<glyph unicode="&#x22;" horiz-adv-x="835" d="M195 1139v319h129v-319h-129zM512 1139v319h129v-319h-129z" />
<glyph unicode="#" horiz-adv-x="1308" d="M172 492v90h211l51 313h-203v92h215l74 471h107l-76 -471h358l74 471h102l-73 -471h192v-92h-205l-51 -313h197v-90h-211l-78 -492h-104l79 492h-360l-76 -492h-104l78 492h-197zM485 582h359l51 313h-358z" />
<glyph unicode="$" horiz-adv-x="1202" d="M104 180l78 78q170 -170 361 -170v604l-33 4q-78 10 -145.5 39t-148.5 97.5t-81 238.5q0 176 110.5 286.5t297.5 110.5v183h92v-183q109 0 196 -38.5t177 -116.5l-72 -72q-76 68 -139.5 100.5t-161.5 32.5v-594l59 -10q109 -20 161 -37.5t139 -90.5t87 -251 t-119.5 -289.5t-326.5 -111.5v-223h-92v221q-137 0 -237.5 46t-201.5 146zM244 1075q0 -127 60.5 -178t117.5 -72.5t121 -29.5v579q-139 0 -219 -84t-80 -215zM635 88q156 0 246 82t90 217q0 133 -80 205q-51 43 -96 55t-160 29v-588z" />
<glyph unicode="%" horiz-adv-x="1695" d="M141 979v219q0 123 74 199t197 76q119 0 193.5 -77t74.5 -198v-219q0 -121 -73.5 -196.5t-194.5 -75.5q-119 0 -195 75.5t-76 196.5zM231 983q0 -96 43 -147.5t138 -51.5q178 0 178 199v211q0 94 -43 147.5t-135 53.5t-136.5 -52.5t-44.5 -148.5v-211zM463 0l680 1458h92 l-680 -1458h-92zM1016 260v219q0 123 73.5 199t196.5 76q119 0 193.5 -77t74.5 -198v-219q0 -123 -73.5 -198.5t-194.5 -75.5t-195.5 76.5t-74.5 197.5zM1106 264q0 -96 44 -148.5t136 -52.5t135 53.5t43 147.5v211q0 94 -43 147.5t-135 53.5t-136 -52.5t-44 -148.5v-211z " />
<glyph unicode="&#x26;" horiz-adv-x="1527" d="M172 403q0 154 81 246t253 207q-98 117 -130 186.5t-32 137.5q0 123 86 206.5t211 83.5t211 -83.5t86 -208.5q0 -82 -45 -146.5t-123 -116.5l-108 -73l417 -506q47 74 66.5 151.5t19.5 210.5h109q0 -141 -30 -251.5t-97 -192.5l209 -254h-142l-141 172 q-74 -70 -182.5 -127t-265.5 -57q-203 0 -328 114.5t-125 300.5zM283 410q0 -143 94 -233.5t246 -90.5q100 0 192 35t197 127l-443 534q-152 -104 -219 -175.5t-67 -196.5zM455 1184q0 -57 27.5 -109.5t115.5 -159.5l84 58q74 49 110.5 93t36.5 112q0 84 -53 139t-135 55 q-80 0 -133 -53t-53 -135z" />
<glyph unicode="'" horiz-adv-x="518" d="M195 1139v319h129v-319h-129z" />
<glyph unicode="(" horiz-adv-x="581" d="M199 162v1134q0 61 7 102.5t30.5 86.5t46 71.5t90.5 94.5l71 -72q-33 -33 -62.5 -64.5t-54 -83t-24.5 -147.5v-1110q0 -96 22.5 -144t47 -76t71.5 -75l-71 -72q-51 51 -83 88t-52.5 77t-29.5 89.5t-9 100.5z" />
<glyph unicode=")" horiz-adv-x="581" d="M133 -117q31 33 64 64q29 33 46 67.5t23 71.5t6 88v1110q0 98 -21.5 143.5t-46 73t-71.5 74.5l76 76q51 -51 83 -88t54.5 -78t29.5 -84t7 -105v-1134q0 -59 -7 -102.5t-32 -88.5q-23 -43 -45.5 -69.5t-89.5 -94.5z" />
<glyph unicode="*" horiz-adv-x="956" d="M147 975l252 139l-252 139l46 78l245 -149l-6 288h92l-6 -288l246 149l45 -78l-252 -139l252 -139l-45 -78l-246 150l6 -289h-92l6 289l-245 -150z" />
<glyph unicode="+" d="M109 492v96h370v368h96v-368h369v-96h-369v-371h-96v371h-370z" />
<glyph unicode="," horiz-adv-x="528" d="M195 139h139v-278l-139 -140v418z" />
<glyph unicode="-" horiz-adv-x="872" d="M168 492v96h537v-96h-537z" />
<glyph unicode="." horiz-adv-x="540" d="M195 0v152h151v-152h-151z" />
<glyph unicode="/" horiz-adv-x="692" d="M0 -152l584 1762h108l-583 -1762h-109z" />
<glyph unicode="0" d="M143 377v704q0 172 106.5 280.5t276.5 108.5t276.5 -108.5t106.5 -280.5v-704q0 -172 -106.5 -280.5t-276.5 -108.5t-276.5 108.5t-106.5 280.5zM248 387q0 -135 72.5 -221t205.5 -86q131 0 205 86t74 221v684q0 135 -73 221t-206 86q-131 0 -204.5 -86t-73.5 -221v-684z " />
<glyph unicode="1" d="M272 1106v125l265 227h104v-1458h-104v1339z" />
<glyph unicode="2" d="M147 0v92l586 768q82 104 82 227q0 133 -74.5 212t-205.5 79q-123 0 -202 -72.5t-79 -218.5h-104q0 168 103 275.5t282 107.5q176 0 280.5 -104t104.5 -279q0 -82 -23 -144t-78 -136l-547 -715h648v-92h-773z" />
<glyph unicode="3" d="M86 354h104q0 -139 91.5 -207.5t220.5 -68.5q133 0 221 84t88 227q0 154 -76 232.5t-241 78.5h-25v93h25q289 0 288 292q0 139 -79.5 217t-202.5 78q-127 0 -202 -70.5t-89 -195.5h-105q14 168 123 263.5t273 95.5q172 0 279.5 -105.5t107.5 -282.5q0 -121 -49.5 -202.5 t-157.5 -128.5q236 -80 235 -365q0 -188 -115.5 -295.5t-297.5 -107.5t-299 93t-117 275z" />
<glyph unicode="4" d="M88 240v92l537 1126h110l-536 -1126h467v463h104v-463h195v-92h-195v-240h-104v240h-578z" />
<glyph unicode="5" d="M152 322h104q16 -121 81.5 -182.5t192.5 -61.5t192.5 65.5t81 144.5t15.5 189q0 223 -73.5 306t-198.5 83q-100 0 -171 -40t-93 -113h-93v745h701v-92h-608v-516q94 109 276 108q158 0 236.5 -78.5t103.5 -176t25 -226.5q0 -135 -20.5 -225t-92.5 -162 q-104 -104 -281 -104q-184 0 -254.5 71.5t-97 131t-26.5 133.5z" />
<glyph unicode="6" d="M145 397q0 72 19.5 144.5t62.5 160.5l375 756h105l-336 -674q74 35 170 35q174 0 275.5 -115.5t101.5 -291.5q0 -182 -104 -303t-282 -121q-180 0 -283.5 113.5t-103.5 295.5zM250 403q0 -147 75.5 -235t204.5 -88t206 89t77 234q0 137 -75 230.5t-208 93.5 q-129 0 -204.5 -88t-75.5 -236z" />
<glyph unicode="7" d="M176 1137v321h764v-92l-516 -1366h-107l517 1366h-553v-229h-105z" />
<glyph unicode="8" d="M111 393q0 121 61 214t170 151q-100 53 -150.5 136t-50.5 196q0 162 107.5 271t277.5 109t277.5 -107.5t107.5 -272.5q0 -225 -198 -332q109 -57 169 -149.5t60 -215.5q0 -176 -119 -290.5t-297 -114.5t-296.5 114.5t-118.5 290.5zM215 393q0 -133 88 -223t223 -90 q131 0 221.5 90t90.5 223q0 135 -88.5 225.5t-223.5 90.5q-133 0 -222 -91.5t-89 -224.5zM246 1090q0 -129 77.5 -209t202.5 -80t203 80t78 209q0 127 -79 207.5t-202 80.5q-125 0 -202.5 -79.5t-77.5 -208.5z" />
<glyph unicode="9" d="M135 1047q0 182 103.5 302.5t281.5 120.5q180 0 283.5 -113.5t103.5 -295.5q0 -72 -19.5 -144.5t-62.5 -160.5l-374 -756h-105l336 674q-74 -35 -172 -35q-174 0 -274.5 115.5t-100.5 292.5zM240 1055q0 -139 72.5 -231.5t207.5 -92.5q127 0 205 89t78 235q0 147 -76 235 t-207 88q-129 0 -204.5 -88t-75.5 -235z" />
<glyph unicode=":" horiz-adv-x="598" d="M252 0v152h151v-152h-151zM252 639v152h151v-152h-151z" />
<glyph unicode=";" horiz-adv-x="598" d="M252 639v152h151v-152h-151zM256 139h139v-278l-139 -140v418z" />
<glyph unicode="&#x3c;" horiz-adv-x="2103" d="M117 539l827 827h141l-776 -776h1678v-103h-1678l776 -776h-141z" />
<glyph unicode="=" d="M109 334v96h835v-96h-835zM109 647v96h835v-96h-835z" />
<glyph unicode="&#x3e;" horiz-adv-x="2103" d="M117 487v103h1677l-776 776h141l828 -827l-828 -828h-141l776 776h-1677z" />
<glyph unicode="?" horiz-adv-x="999" d="M164 1110q0 152 102.5 256t263.5 104q158 0 262.5 -102t104.5 -258q0 -66 -22.5 -121t-67.5 -123l-174 -256q-18 -29 -27.5 -61.5t-9.5 -61.5v-96h-104v92q0 55 13 96.5t46 88.5l172 254q33 51 51.5 94t18.5 94q0 115 -75 191.5t-188 76.5q-117 0 -189.5 -78.5 t-72.5 -189.5h-104zM475 0v137h137v-137h-137z" />
<glyph unicode="@" horiz-adv-x="1427" d="M158 322v716q0 193 109.5 306.5t291.5 113.5h307q178 0 291 -112.5t113 -307.5v-1038h-105v121q-98 -135 -284 -135q-182 0 -257 98t-95.5 184t-20.5 226q0 256 62.5 345t139 125.5t169.5 36.5q180 0 286 -139v182q0 88 -18.5 141.5t-64.5 100.5t-101 67.5t-133 20.5 h-270q-145 0 -212 -66.5t-85.5 -119.5t-18.5 -144v-722q0 -104 24.5 -156.5t102.5 -108.5l-72 -71q-94 66 -126.5 133t-32.5 203zM612 494q0 -244 73 -330t204 -86q166 0 221 113.5t55 302.5q0 244 -72.5 329.5t-203.5 85.5q-166 0 -221.5 -113.5t-55.5 -301.5z" />
<glyph unicode="A" horiz-adv-x="1232" d="M31 0l536 1458h99l536 -1458h-119l-127 354h-680l-126 -354h-119zM311 453h611l-306 858z" />
<glyph unicode="B" horiz-adv-x="1374" d="M225 0v1458h537q186 0 304 -101.5t118 -279.5q0 -117 -60.5 -205t-167.5 -122q119 -39 184.5 -132.5t65.5 -220.5q0 -193 -114.5 -295t-313.5 -102h-553zM336 98h430q150 0 240 80t90 219t-90 219t-240 80h-430v-598zM336 795h414q141 0 232 69.5t91 212.5t-89 213 t-234 70h-414v-565z" />
<glyph unicode="C" horiz-adv-x="1318" d="M168 729q0 229 11 354t142.5 256t346.5 131q197 0 328.5 -112.5t166.5 -313.5h-112q-33 154 -134.5 241t-248.5 87q-164 0 -257.5 -93t-112.5 -198.5t-19 -351.5q0 -213 11 -326.5t82.5 -185.5t143.5 -101.5t152 -29.5q147 0 250.5 87t136.5 241h108 q-35 -197 -167.5 -311.5t-327.5 -114.5q-100 0 -196.5 39t-178.5 120.5t-103.5 195.5t-21.5 386z" />
<glyph unicode="D" horiz-adv-x="1388" d="M225 0v1458h490q231 0 346 -114.5t137.5 -248.5t22.5 -345q0 -231 -22 -375t-120 -242q-133 -133 -364 -133h-490zM336 98h352q98 0 175 24.5t145.5 95.5t85 198t16.5 334v63q0 197 -26 287t-83 147q-59 61 -139 87t-174 26h-352v-1262z" />
<glyph unicode="E" horiz-adv-x="1224" d="M225 0v1458h885v-98h-774v-576h659v-98h-659v-588h774v-98h-885z" />
<glyph unicode="F" horiz-adv-x="1179" d="M225 0v1458h885v-98h-774v-600h659v-98h-659v-662h-111z" />
<glyph unicode="G" horiz-adv-x="1333" d="M168 729q0 229 11 354t142.5 256t346.5 131q193 0 327.5 -114.5t169.5 -311.5h-110q-33 152 -135.5 240t-251.5 88q-164 0 -257.5 -93t-112.5 -198.5t-19 -351.5q0 -213 11 -326.5t82.5 -185.5t143.5 -101.5t152 -29.5q186 0 288.5 125t102.5 305v131h-391v98h501v-237 q0 -117 -26 -199.5t-92 -152.5q-72 -78 -173.5 -123t-209.5 -45q-100 0 -196.5 39t-178.5 120.5t-103.5 195.5t-21.5 386z" />
<glyph unicode="H" horiz-adv-x="1431" d="M225 0v1458h111v-674h760v674h110v-1458h-110v686h-760v-686h-111z" />
<glyph unicode="I" horiz-adv-x="561" d="M225 0v1458h111v-1458h-111z" />
<glyph unicode="J" horiz-adv-x="1019" d="M61 113l76 75q49 -49 102.5 -75.5t141.5 -26.5q158 0 241 95t83 272v1005h110v-1028q0 -201 -116.5 -321.5t-317.5 -120.5q-195 0 -320 125z" />
<glyph unicode="K" horiz-adv-x="1320" d="M225 0v1458h111v-911l739 911h133l-450 -557l526 -901h-131l-469 817l-348 -422v-395h-111z" />
<glyph unicode="L" horiz-adv-x="1171" d="M225 0v1458h111v-1360h774v-98h-885z" />
<glyph unicode="M" horiz-adv-x="1675" d="M225 0v1458h111l508 -1124l495 1124h111v-1458h-111v1202l-442 -997h-111l-450 997v-1202h-111z" />
<glyph unicode="N" horiz-adv-x="1513" d="M225 0v1458h111l842 -1263v1263h110v-1458h-110l-842 1268v-1268h-111z" />
<glyph unicode="O" horiz-adv-x="1335" d="M168 729q0 229 11 354t142.5 256t346.5 131q100 0 196.5 -38.5t178 -120.5t103 -196t21.5 -386q0 -229 -11 -354t-124 -238q-149 -149 -361 -149h-3q-100 0 -196.5 39t-178.5 120.5t-103.5 195.5t-21.5 386zM279 729q0 -213 11 -326.5t82.5 -185.5t143.5 -101.5 t152 -29.5q164 0 257 93t112.5 198.5t19.5 351.5q0 213 -11.5 327t-101.5 204q-53 53 -124.5 82.5t-151.5 29.5q-164 0 -257.5 -93t-112.5 -198.5t-19 -351.5z" />
<glyph unicode="P" horiz-adv-x="1292" d="M225 0v1458h535q197 0 318.5 -110.5t121.5 -309.5q0 -195 -122.5 -307.5t-317.5 -112.5h-424v-618h-111zM336 717h412q158 0 250 81t92 240q0 160 -93 241t-249 81h-412v-643z" />
<glyph unicode="Q" horiz-adv-x="1333" d="M168 729q0 229 11 354t142.5 256t346.5 131q100 0 196.5 -38.5t178 -120.5t103 -196t21.5 -386q0 -223 -9 -339t-95 -218l172 -172l-74 -74l-172 172q-138 -110 -318 -110h-3q-100 0 -196.5 39t-178.5 120.5t-103.5 195.5t-21.5 386zM279 729q0 -213 11 -326.5 t82.5 -185.5t143.5 -101.5t152 -29.5q139 0 247 86l-204 205l73 74l203 -203q43 63 56.5 167.5t13.5 313.5q0 213 -11.5 327t-101.5 204q-53 53 -124.5 82.5t-151.5 29.5q-164 0 -257.5 -93t-112.5 -198.5t-19 -351.5z" />
<glyph unicode="R" horiz-adv-x="1345" d="M225 0v1458h555q182 0 300 -103.5t118 -287.5q0 -162 -90 -264.5t-246 -128.5l352 -674h-129l-348 672h-401v-672h-111zM336 770h430q147 0 234 74t87 221q0 145 -87 220t-234 75h-430v-590z" />
<glyph unicode="S" horiz-adv-x="1202" d="M104 180l78 78q96 -96 188.5 -134t225.5 -38q174 0 274.5 80t100.5 221q0 133 -60.5 186.5t-99.5 67.5t-131 29l-170 26q-166 25 -270.5 114t-104.5 261q0 182 121 290.5t332 108.5q133 0 227 -35.5t193 -121.5l-72 -72q-78 70 -154.5 102.5t-199.5 32.5 q-158 0 -248 -79.5t-90 -221.5q0 -127 79.5 -193.5t213.5 -86.5l157 -25q106 -16 157.5 -34.5t140.5 -92.5t89 -252q0 -184 -132 -293.5t-359 -109.5q-164 0 -272.5 44t-213.5 148z" />
<glyph unicode="T" horiz-adv-x="1103" d="M61 1360v98h981v-98h-436v-1360h-110v1360h-435z" />
<glyph unicode="U" horiz-adv-x="1409" d="M205 473v985h110v-971q0 -180 106.5 -290.5t283.5 -110.5q176 0 282.5 108.5t106.5 292.5v971h110v-985q0 -215 -139 -350t-360 -135t-360.5 135t-139.5 350z" />
<glyph unicode="V" horiz-adv-x="1093" d="M20 1458h117l410 -1263l409 1263h117l-479 -1458h-94z" />
<glyph unicode="W" horiz-adv-x="1724" d="M41 1458h117l307 -1268l340 1268h115l340 -1268l307 1268h116l-364 -1458h-113l-344 1270l-344 -1270h-112z" />
<glyph unicode="X" horiz-adv-x="1089" d="M37 0l446 748l-417 710h129l348 -612l350 612h127l-418 -710l451 -748h-129l-381 649l-381 -649h-125z" />
<glyph unicode="Y" horiz-adv-x="1011" d="M20 1458h119l371 -737l362 737h119l-430 -854v-604h-110v604z" />
<glyph unicode="Z" horiz-adv-x="1144" d="M129 0v117l768 1243h-737v98h856v-98l-774 -1262h774v-98h-887z" />
<glyph unicode="[" horiz-adv-x="593" d="M199 -152v1762h303v-92h-199v-1577h199v-93h-303z" />
<glyph unicode="\" horiz-adv-x="692" d="M0 1610h109l583 -1762h-108z" />
<glyph unicode="]" horiz-adv-x="593" d="M92 -66h205v1590h-205v86h303v-1762h-303v86z" />
<glyph unicode="^" d="M156 864l323 606h94l324 -606h-104l-267 496l-266 -496h-104z" />
<glyph unicode="_" d="M0 -250h1053v-78h-1053v78z" />
<glyph unicode="`" horiz-adv-x="1024" d="M272 1509h138l198 -301h-119z" />
<glyph unicode="a" horiz-adv-x="1073" d="M115 270q0 135 91 210t253 75h319v111q0 121 -65.5 181t-212.5 60q-104 0 -165 -27.5t-108 -97.5l-75 66q59 84 142 117.5t206 33.5q193 0 288 -82.5t95 -240.5v-676h-105v98q-61 -61 -128.5 -85.5t-172.5 -24.5q-109 0 -176.5 20.5t-126.5 83t-59 178.5zM219 272 q0 -192 255 -192h3q82 0 139.5 14.5t109.5 64.5t52 185v127h-307q-252 0 -252 -199z" />
<glyph unicode="b" horiz-adv-x="1105" d="M199 0v1458h104v-598q59 80 130 109.5t163 29.5q78 0 139.5 -22.5t116.5 -77.5t84 -165.5t29 -239.5q0 -137 -27.5 -242.5t-99.5 -177.5q-39 -39 -102.5 -62.5t-139.5 -23.5q-92 0 -163 29.5t-130 109.5v-127h-104zM303 494q0 -188 56.5 -301t222.5 -113q164 0 221 112.5 t57 301.5q0 188 -56 300.5t-222 112.5q-164 0 -221.5 -112.5t-57.5 -300.5z" />
<glyph unicode="c" horiz-adv-x="1009" d="M141 494q0 236 117 370.5t317 134.5q106 0 175 -31.5t151 -119.5l-72 -66q-63 72 -118.5 98.5t-135.5 26.5q-172 0 -250.5 -114.5t-78.5 -298.5q0 -102 14 -165t78.5 -156t236.5 -93q80 0 135.5 26.5t118.5 98.5l72 -66q-78 -86 -151 -118.5t-175 -32.5 q-201 0 -317.5 135t-116.5 371z" />
<glyph unicode="d" horiz-adv-x="1105" d="M141 494q0 137 28 242.5t83 160.5t118.5 78.5t139.5 23.5q92 0 162.5 -29.5t130.5 -109.5v598h104v-1458h-104v127q-59 -80 -130 -109.5t-163 -29.5q-78 0 -139.5 22.5t-116.5 77.5t-84 166t-29 240zM246 494q0 -188 56 -301t222 -113q164 0 221.5 112.5t57.5 301.5 q0 188 -56.5 300.5t-222.5 112.5q-164 0 -221 -112.5t-57 -300.5z" />
<glyph unicode="e" horiz-adv-x="1071" d="M141 494q0 240 104.5 372.5t291.5 132.5q184 0 289.5 -128t105.5 -353v-47h-686q0 -188 82 -288.5t239 -100.5q154 0 273 119l78 -62q-78 -78 -159 -114.5t-198 -36.5q-205 0 -312.5 130t-107.5 376zM246 555h581q0 63 -7 99t-27 87q-33 78 -101.5 122t-154.5 44 t-155 -44t-95.5 -108.5t-33.5 -98t-7 -101.5z" />
<glyph unicode="f" horiz-adv-x="622" d="M94 909v78h135v213q0 117 61.5 187.5t176.5 70.5h90v-92h-72q-152 0 -151 -164v-215h223v-78h-223v-909h-105v909h-135z" />
<glyph unicode="g" horiz-adv-x="1105" d="M141 494q0 137 28 242.5t83 160.5t118.5 78.5t139.5 23.5q92 0 162.5 -29.5t130.5 -109.5v127h104v-1042q0 -193 -106.5 -310.5t-296.5 -117.5q-106 0 -175 28.5t-151 102.5l70 69q66 -57 118 -82.5t138 -25.5q150 0 224.5 94t74.5 248v176q-59 -80 -130 -109.5 t-163 -29.5q-78 0 -139.5 22.5t-116.5 77.5t-84 166t-29 240zM246 494q0 -188 56 -301t222 -113q164 0 221.5 112.5t57.5 301.5q0 188 -56.5 300.5t-222.5 112.5q-164 0 -221 -112.5t-57 -300.5z" />
<glyph unicode="h" horiz-adv-x="1144" d="M199 0v1458h104v-588q111 129 291 129q170 0 267 -99t97 -269v-631h-104v612q0 295 -272 295q-131 0 -205 -77.5t-74 -217.5v-612h-104z" />
<glyph unicode="i" horiz-adv-x="501" d="M186 1329v129h129v-129h-129zM199 0v987h104v-987h-104z" />
<glyph unicode="j" horiz-adv-x="501" d="M-25 -379h72q84 0 118 40t34 126v1200h104v-1202q0 -121 -59 -188.5t-178 -67.5h-91v92zM186 1329v129h129v-129h-129z" />
<glyph unicode="k" horiz-adv-x="1079" d="M199 0v1458h104v-1028l490 557h133l-326 -369l397 -618h-129l-340 543l-225 -260v-283h-104z" />
<glyph unicode="l" horiz-adv-x="587" d="M195 256v1202h104v-1200q0 -88 33 -127t119 -39h71v-92h-90q-117 0 -177 68.5t-60 187.5z" />
<glyph unicode="m" horiz-adv-x="1798" d="M199 0v987h104v-117q111 129 293 129q225 0 317 -180q115 180 336 180q80 0 146.5 -24.5t141.5 -96t75 -247.5v-631h-103v612q0 295 -272 295q-129 0 -204 -74.5t-75 -201.5v-631h-104v612q0 295 -272 295q-131 0 -205 -77.5t-74 -217.5v-612h-104z" />
<glyph unicode="n" horiz-adv-x="1144" d="M199 0v987h104v-117q111 129 291 129q164 0 264 -96t100 -272v-631h-104v612q0 295 -272 295q-131 0 -205 -77.5t-74 -217.5v-612h-104z" />
<glyph unicode="o" horiz-adv-x="1077" d="M141 494q0 131 24.5 227t116 187t257.5 91t256 -90t115.5 -190.5t25.5 -224.5q0 -131 -24.5 -227.5t-98.5 -170.5q-108 -108 -271 -108h-3q-166 0 -256 90t-116 190.5t-26 225.5zM246 494q0 -143 21.5 -214t86 -135.5t185.5 -64.5t184 63.5t85.5 135t22.5 215.5 q0 143 -21.5 213.5t-66.5 115.5q-84 84 -204 84q-121 0 -184.5 -63.5t-86 -135t-22.5 -214.5z" />
<glyph unicode="p" horiz-adv-x="1105" d="M199 -471v1458h104v-127q59 80 130 109.5t163 29.5q78 0 139.5 -22.5t116.5 -77.5t84 -165.5t29 -239.5q0 -137 -27.5 -242.5t-99.5 -177.5q-39 -39 -102.5 -62.5t-139.5 -23.5q-92 0 -163 29.5t-130 109.5v-598h-104zM303 494q0 -188 56.5 -301t222.5 -113 q164 0 221 112.5t57 301.5q0 188 -56 300.5t-222 112.5q-164 0 -221.5 -112.5t-57.5 -300.5z" />
<glyph unicode="q" horiz-adv-x="1105" d="M141 494q0 137 28 242.5t83 160.5t118.5 78.5t139.5 23.5q92 0 162.5 -29.5t130.5 -109.5v127h104v-1458h-104v598q-59 -80 -130 -109.5t-163 -29.5q-78 0 -139.5 22.5t-116.5 77.5t-84 166t-29 240zM246 494q0 -188 56 -301t222 -113q164 0 221.5 112.5t57.5 301.5 q0 188 -56.5 300.5t-222.5 112.5q-164 0 -221 -112.5t-57 -300.5z" />
<glyph unicode="r" horiz-adv-x="837" d="M199 0v987h104v-131q43 68 120 105.5t169 37.5q72 0 129 -21.5t108 -72.5l-75 -76q-45 45 -84 61.5t-103 16.5q-125 0 -194.5 -85t-69.5 -214v-608h-104z" />
<glyph unicode="s" horiz-adv-x="1011" d="M102 129l72 72q115 -121 324 -121q297 0 297 201q0 147 -189 165l-164 15q-145 0 -221 69.5t-76 188.5q0 129 96.5 204.5t258.5 75.5q102 0 190 -26.5t156 -77.5l-70 -70q-115 84 -276 84q-121 0 -186.5 -49t-65.5 -141q0 -147 201 -166l159 -14q139 -12 214 -67.5 t75 -190.5q0 -133 -107.5 -213t-287.5 -80q-252 0 -400 141z" />
<glyph unicode="t" horiz-adv-x="665" d="M88 909v78h135v316h105v-316h223v-78h-223v-653q0 -164 151 -164h72v-92h-90q-113 0 -175.5 70.5t-62.5 187.5v651h-135z" />
<glyph unicode="u" horiz-adv-x="1144" d="M186 356v631h105v-612q0 -295 272 -295q131 0 205 78t74 217v612h104v-987h-104v117q-111 -129 -291 -129q-164 0 -264.5 96t-100.5 272z" />
<glyph unicode="v" horiz-adv-x="880" d="M29 987h114l297 -864l297 864h115l-360 -987h-103z" />
<glyph unicode="w" horiz-adv-x="1458" d="M29 987h114l252 -864l283 864h102l283 -864l252 864h115l-316 -987h-106l-279 823l-278 -823h-107z" />
<glyph unicode="x" horiz-adv-x="942" d="M82 0l334 504l-320 483h127l250 -397l246 397h127l-320 -483l334 -504h-127l-260 416l-264 -416h-127z" />
<glyph unicode="y" horiz-adv-x="880" d="M29 987h114l297 -864l297 864h115l-459 -1255q-29 -80 -65.5 -114t-85.5 -49t-103 -15h-49v92h39q82 0 117 28.5t63 106.5l80 219z" />
<glyph unicode="z" horiz-adv-x="925" d="M111 0v98l594 797h-562v92h672v-98l-596 -797h596v-92h-704z" />
<glyph unicode="{" horiz-adv-x="647" d="M102 684v90h37q29 0 49.5 10.5t48 38t27.5 113.5v424q0 141 54.5 195.5t197.5 54.5h29v-92h-27q-94 0 -121.5 -29t-27.5 -131v-424q0 -80 -29 -126t-96 -79q66 -33 95.5 -80t29.5 -125v-424q0 -102 27.5 -130.5t121.5 -28.5h27v-93h-29q-74 0 -121 12.5t-76.5 42 t-42 71.5t-12.5 124v424q0 86 -26.5 113t-49 38t-49.5 11h-37z" />
<glyph unicode="|" horiz-adv-x="649" d="M272 -152v1762h105v-1762h-105z" />
<glyph unicode="}" horiz-adv-x="647" d="M102 -59h27q94 0 122 28.5t28 130.5v424q0 80 28.5 126t95.5 79q-66 33 -95 80t-29 125v424q0 102 -28 131t-122 29h-27v92h29q74 0 121 -12.5t76.5 -42t42 -71.5t12.5 -124v-424q0 -86 26.5 -112.5t49 -38t49.5 -11.5h37v-90h-37q-29 0 -49.5 -10t-48 -38t-27.5 -114 v-424q0 -141 -54.5 -195.5t-197.5 -54.5h-29v93z" />
<glyph unicode="~" d="M109 522q80 80 127 103.5t110 23.5q51 0 91 -15.5t109.5 -45t99.5 -39.5t65 -10q47 0 77.5 15t92.5 77l63 -64q-80 -80 -127 -103.5t-110 -23.5q-51 0 -91.5 15.5t-110 45t-99 40t-64.5 10.5q-47 0 -78 -15.5t-92 -76.5z" />
<glyph unicode="&#xa1;" horiz-adv-x="622" d="M213 850v137h137v-137h-137zM225 -471l6 1065h101l6 -1065h-113z" />
<glyph unicode="&#xa2;" horiz-adv-x="1019" d="M141 750q0 215 98.5 347t270.5 154v207h88v-203q94 0 159.5 -32.5t143.5 -118.5l-72 -66q-57 66 -111 95.5t-120 29.5v-827q70 0 120 27.5t111 97.5l72 -66q-74 -82 -143.5 -116.5t-159.5 -34.5v-244h-88v248q-172 23 -270.5 155t-98.5 347zM246 750q0 -102 14 -165 t69.5 -141.5t180.5 -101.5v815q-125 -23 -194.5 -123t-69.5 -284z" />
<glyph unicode="&#xa3;" horiz-adv-x="1099" d="M102 700v78h131v250q0 201 117 321.5t318 120.5q195 0 319 -124l-76 -76q-49 49 -102 75.5t-141 26.5q-158 0 -241 -95t-83 -271v-228h324v-78h-324v-602h643v-98h-754v700h-131z" />
<glyph unicode="&#xa4;" horiz-adv-x="1345" d="M174 111l152 151q-98 121 -99 281q0 162 99 282l-152 150l66 65l151 -149q119 96 281 96t280 -96l154 149l65 -65l-151 -150q96 -119 96 -282q0 -162 -96 -281l151 -151l-65 -66l-154 152q-121 -98 -280 -99q-160 0 -281 99l-151 -152zM326 543q0 -145 100 -245.5 t246 -100.5q145 0 245.5 100t100.5 246q0 145 -100.5 245.5t-245.5 100.5t-245.5 -100.5t-100.5 -245.5z" />
<glyph unicode="&#xa5;" horiz-adv-x="1009" d="M20 1458h117l371 -739l366 739h115l-334 -667h222v-78h-261l-55 -109v-108h316v-78h-316v-418h-110v418h-318v78h318v108l-56 109h-262v78h223z" />
<glyph unicode="&#xa7;" horiz-adv-x="1159" d="M199 506q0 123 63.5 213t161.5 135q-100 45 -151.5 112.5t-51.5 176.5q0 150 103.5 238.5t255.5 88.5t258 -82.5t106 -226.5h-108q-10 113 -74 163t-182 50q-117 0 -183.5 -58.5t-66.5 -172.5q0 -88 50 -142.5t136 -76.5l170 -47q127 -35 201 -137.5t74 -233.5 q0 -123 -64 -213t-162 -135q98 -33 154.5 -112t56.5 -187q0 -150 -102.5 -246t-263.5 -96q-160 0 -268.5 85t-108.5 232h110q20 -219 267 -219q121 0 188.5 62.5t67.5 181.5q0 82 -51.5 143t-141.5 86l-170 47q-129 37 -201.5 136.5t-72.5 234.5zM309 506q0 -68 18.5 -118 t75 -111.5t177.5 -61.5t195.5 81t74.5 210q0 70 -14.5 117t-57.5 90q-84 84 -198 84q-121 0 -179.5 -62.5t-75 -113t-16.5 -115.5z" />
<glyph unicode="&#xa8;" horiz-adv-x="1024" d="M240 1229v157h118v-157h-118zM666 1229v157h118v-157h-118z" />
<glyph unicode="&#xa9;" horiz-adv-x="1830" d="M174 729q0 307 217 524t524 217t524.5 -217t217.5 -524t-217.5 -524t-524.5 -217t-524 217t-217 524zM272 729q0 -264 189.5 -457.5t453.5 -193.5t454 193.5t190 457.5t-190 457.5t-454 193.5t-453.5 -193.5t-189.5 -457.5zM561 729q0 184 92 304t271 120q86 0 141 -23.5 t127 -85.5l-62 -61q-55 49 -100 67.5t-106 18.5q-145 0 -208 -94t-63 -246q0 -150 63.5 -244t207.5 -94q63 0 106 16.5t100 67.5l62 -61q-118 -107 -268 -107q-178 0 -270.5 120t-92.5 302z" />
<glyph unicode="&#xaa;" horiz-adv-x="915" d="M121 885q0 109 71.5 168t200.5 59h248v86q0 186 -215 186q-84 0 -130 -20.5t-83 -77.5l-66 55q49 68 115 95.5t164 27.5q150 0 226.5 -66.5t76.5 -191.5v-536h-88v73q-49 -47 -101.5 -65.5t-131.5 -18.5q-160 0 -209 50.5t-63.5 89.5t-14.5 86zM209 887q0 -147 199 -148 q86 0 122.5 13.5t73.5 48.5t37 143v96h-238q-98 0 -146 -38.5t-48 -114.5z" />
<glyph unicode="&#xab;" horiz-adv-x="1079" d="M86 543l401 401v-135l-266 -266l266 -267v-135zM510 543l401 401v-135l-266 -266l266 -267v-135z" />
<glyph unicode="&#xac;" d="M109 492v96h835v-369h-96v273h-739z" />
<glyph unicode="&#xad;" horiz-adv-x="872" d="M168 492v96h537v-96h-537z" />
<glyph unicode="&#xae;" horiz-adv-x="1830" d="M174 729q0 307 217 524t524 217t524.5 -217t217.5 -524t-217.5 -524t-524.5 -217t-524 217t-217 524zM270 729q0 -266 189.5 -459.5t455.5 -193.5t456 193.5t190 459.5t-190 459.5t-456 193.5t-455.5 -193.5t-189.5 -459.5zM682 319v822h262q104 0 179 -68.5t75 -173.5 q0 -88 -50 -146.5t-136 -82.5l207 -351h-107l-203 343h-135v-343h-92zM774 743h160q76 0 124 44t48 112t-49 113t-123 45h-160v-314z" />
<glyph unicode="&#xb0;" horiz-adv-x="937" d="M147 1151q0 133 94.5 227.5t227.5 94.5t227.5 -94.5t94.5 -227.5t-94.5 -227.5t-227.5 -94.5t-227.5 94.5t-94.5 227.5zM240 1151q0 -100 65.5 -168t163.5 -68q100 0 164.5 67t64.5 169q0 100 -65.5 167.5t-165.5 67.5q-98 0 -162.5 -66.5t-64.5 -168.5z" />
<glyph unicode="&#xb1;" d="M109 0v96h835v-96h-835zM109 553v96h370v371h96v-371h369v-96h-369v-373h-96v373h-370z" />
<glyph unicode="&#xb4;" horiz-adv-x="1024" d="M416 1208l198 301h138l-217 -301h-119z" />
<glyph unicode="&#xb5;" horiz-adv-x="1138" d="M180 -471v1458h105v-612q0 -295 272 -295q131 0 205 78t74 217v612h104v-987h-104v117q-111 -129 -291 -129q-162 0 -260 92v-551h-105z" />
<glyph unicode="&#xb6;" horiz-adv-x="1185" d="M92 1069q0 162 116 275.5t316 113.5h437v-1929h-105v1831h-252v-1831h-104v1151q-186 0 -297 116.5t-111 272.5z" />
<glyph unicode="&#xb8;" horiz-adv-x="1024" d="M371 -451l147 308h113l-131 -308h-129z" />
<glyph unicode="&#xba;" horiz-adv-x="925" d="M147 1063q0 131 26 199.5t92.5 135t197.5 66.5t202.5 -71.5t92 -151.5t20.5 -178q0 -131 -25.5 -199.5t-72.5 -115.5q-86 -86 -217 -86t-203 71.5t-92.5 151.5t-20.5 178zM236 1063q0 -96 11 -153.5t66.5 -113t149.5 -55.5t143 49.5t66.5 104.5t17.5 168q0 96 -11 153.5 t-56 102.5q-66 66 -160 65q-94 0 -143.5 -49t-66.5 -104t-17 -168z" />
<glyph unicode="&#xbb;" horiz-adv-x="1079" d="M168 141v135l266 267l-266 266v135l401 -401zM592 141v135l266 267l-266 266v135l401 -401z" />
<glyph unicode="&#xbf;" horiz-adv-x="999" d="M102 -123q0 66 22.5 121t68.5 123l174 256q18 29 27 61.5t9 61.5v96h105v-92q0 -55 -13.5 -96t-45.5 -89l-173 -253q-33 -51 -51 -94.5t-18 -94.5q0 -115 74.5 -191.5t187.5 -76.5q117 0 189.5 79t72.5 189h105q0 -152 -102.5 -256t-264.5 -104q-158 0 -262.5 102 t-104.5 258zM387 850v137h137v-137h-137z" />
<glyph unicode="&#xc0;" horiz-adv-x="1232" d="M31 0l536 1458h99l536 -1458h-119l-127 354h-680l-126 -354h-119zM311 453h611l-306 858zM376 1898h138l198 -301h-119z" />
<glyph unicode="&#xc1;" horiz-adv-x="1232" d="M31 0l536 1458h99l536 -1458h-119l-127 354h-680l-126 -354h-119zM311 453h611l-306 858zM520 1597l198 301h138l-217 -301h-119z" />
<glyph unicode="&#xc2;" horiz-adv-x="1232" d="M31 0l536 1458h99l536 -1458h-119l-127 354h-680l-126 -354h-119zM309 1597l252 301h110l252 -301h-117l-190 224l-190 -224h-117zM311 453h611l-306 858z" />
<glyph unicode="&#xc3;" horiz-adv-x="1232" d="M31 0l536 1458h99l536 -1458h-119l-127 354h-680l-126 -354h-119zM301 1712q61 61 101 79.5t81 18.5q43 0 69.5 -10t66.5 -34.5t65.5 -36t54.5 -11.5q27 0 53.5 13.5t67.5 54.5l61 -60q-61 -61 -103 -79.5t-79 -18.5q-39 0 -67.5 11.5t-75 38t-64.5 34.5t-49 8 q-33 0 -53.5 -10t-67.5 -57zM311 453h611l-306 858z" />
<glyph unicode="&#xc4;" horiz-adv-x="1232" d="M31 0l536 1458h99l536 -1458h-119l-127 354h-680l-126 -354h-119zM311 453h611l-306 858zM344 1618v157h118v-157h-118zM770 1618v157h118v-157h-118z" />
<glyph unicode="&#xc5;" horiz-adv-x="1232" d="M31 0l536 1458h99l536 -1458h-119l-127 354h-680l-126 -354h-119zM311 453h611l-306 858zM383 1763q0 98 67.5 166t165.5 68t165.5 -67.5t67.5 -166.5q0 -96 -67.5 -165.5t-165.5 -69.5q-96 0 -164.5 68.5t-68.5 166.5zM466 1763q0 -61 44.5 -105t105.5 -44t105.5 44 t44.5 105t-43.5 104.5t-106.5 43.5q-59 0 -104.5 -43t-45.5 -105z" />
<glyph unicode="&#xc6;" horiz-adv-x="1845" d="M20 0l773 1458h938v-98h-775v-582h660v-98h-660v-582h775v-98h-883v354h-522l-185 -354h-121zM373 453h475v907z" />
<glyph unicode="&#xc7;" horiz-adv-x="1318" d="M168 729q0 229 11 354t142.5 256t346.5 131q197 0 328.5 -112.5t166.5 -313.5h-112q-33 154 -134.5 241t-248.5 87q-164 0 -257.5 -93t-112.5 -198.5t-19 -351.5q0 -213 11 -326.5t82.5 -185.5t143.5 -101.5t152 -29.5q147 0 250.5 87t136.5 241h108 q-35 -197 -167.5 -311.5t-327.5 -114.5q-100 0 -196.5 39t-178.5 120.5t-103.5 195.5t-21.5 386zM490 -451l147 308h113l-131 -308h-129z" />
<glyph unicode="&#xc8;" horiz-adv-x="1224" d="M225 0v1458h885v-98h-774v-576h659v-98h-659v-588h774v-98h-885zM403 1898h138l198 -301h-119z" />
<glyph unicode="&#xc9;" horiz-adv-x="1224" d="M225 0v1458h885v-98h-774v-576h659v-98h-659v-588h774v-98h-885zM547 1597l198 301h138l-217 -301h-119z" />
<glyph unicode="&#xca;" horiz-adv-x="1224" d="M225 0v1458h885v-98h-774v-576h659v-98h-659v-588h774v-98h-885zM336 1597l252 301h110l252 -301h-117l-190 224l-190 -224h-117z" />
<glyph unicode="&#xcb;" horiz-adv-x="1224" d="M225 0v1458h885v-98h-774v-576h659v-98h-659v-588h774v-98h-885zM371 1618v157h118v-157h-118zM797 1618v157h118v-157h-118z" />
<glyph unicode="&#xcc;" horiz-adv-x="561" d="M225 0v1458h111v-1458h-111zM225 1898h138l198 -301h-119z" />
<glyph unicode="&#xcd;" horiz-adv-x="561" d="M225 0v1458h111v-1458h-111zM226 1597l198 301h138l-217 -301h-119z" />
<glyph unicode="&#xce;" horiz-adv-x="561" d="M225 0v1458h111v-1458h-111zM225 1597l252 301h110l252 -301h-117l-190 224l-190 -224h-117z" />
<glyph unicode="&#xcf;" horiz-adv-x="561" d="M225 0v1458h111v-1458h-111zM226 1618v157h118v-157h-118zM652 1618v157h118v-157h-118z" />
<glyph unicode="&#xd1;" horiz-adv-x="1513" d="M225 0v1458h111l842 -1263v1263h110v-1458h-110l-842 1268v-1268h-111zM443 1712q61 61 101 79.5t81 18.5q43 0 69.5 -10t66.5 -34.5t65.5 -36t54.5 -11.5q27 0 53.5 13.5t67.5 54.5l61 -60q-61 -61 -103 -79.5t-79 -18.5q-39 0 -67.5 11.5t-75 38t-64.5 34.5t-49 8 q-33 0 -53.5 -10t-67.5 -57z" />
<glyph unicode="&#xd2;" horiz-adv-x="1335" d="M168 729q0 229 11 354t142.5 256t346.5 131q100 0 196.5 -38.5t178 -120.5t103 -196t21.5 -386q0 -229 -11 -354t-124 -238q-150 -150 -364 -149q-100 0 -196.5 39t-178.5 120.5t-103.5 195.5t-21.5 386zM279 729q0 -213 11 -326.5t82.5 -185.5t143.5 -101.5t152 -29.5 q164 0 257 93t112.5 198.5t19.5 351.5q0 213 -11.5 327t-101.5 204q-53 53 -124.5 82.5t-151.5 29.5q-164 0 -257.5 -93t-112.5 -198.5t-19 -351.5zM428 1898h138l198 -301h-119z" />
<glyph unicode="&#xd3;" horiz-adv-x="1335" d="M168 729q0 229 11 354t142.5 256t346.5 131q100 0 196.5 -38.5t178 -120.5t103 -196t21.5 -386q0 -229 -11 -354t-124 -238q-150 -150 -364 -149q-100 0 -196.5 39t-178.5 120.5t-103.5 195.5t-21.5 386zM279 729q0 -213 11 -326.5t82.5 -185.5t143.5 -101.5t152 -29.5 q164 0 257 93t112.5 198.5t19.5 351.5q0 213 -11.5 327t-101.5 204q-53 53 -124.5 82.5t-151.5 29.5q-164 0 -257.5 -93t-112.5 -198.5t-19 -351.5zM572 1597l198 301h138l-217 -301h-119z" />
<glyph unicode="&#xd4;" horiz-adv-x="1335" d="M168 729q0 229 11 354t142.5 256t346.5 131q100 0 196.5 -38.5t178 -120.5t103 -196t21.5 -386q0 -229 -11 -354t-124 -238q-150 -150 -364 -149q-100 0 -196.5 39t-178.5 120.5t-103.5 195.5t-21.5 386zM279 729q0 -213 11 -326.5t82.5 -185.5t143.5 -101.5t152 -29.5 q164 0 257 93t112.5 198.5t19.5 351.5q0 213 -11.5 327t-101.5 204q-53 53 -124.5 82.5t-151.5 29.5q-164 0 -257.5 -93t-112.5 -198.5t-19 -351.5zM361 1597l252 301h110l252 -301h-117l-190 224l-190 -224h-117z" />
<glyph unicode="&#xd5;" horiz-adv-x="1335" d="M168 729q0 229 11 354t142.5 256t346.5 131q100 0 196.5 -38.5t178 -120.5t103 -196t21.5 -386q0 -229 -11 -354t-124 -238q-150 -150 -364 -149q-100 0 -196.5 39t-178.5 120.5t-103.5 195.5t-21.5 386zM279 729q0 -213 11 -326.5t82.5 -185.5t143.5 -101.5t152 -29.5 q164 0 257 93t112.5 198.5t19.5 351.5q0 213 -11.5 327t-101.5 204q-53 53 -124.5 82.5t-151.5 29.5q-164 0 -257.5 -93t-112.5 -198.5t-19 -351.5zM353 1712q61 61 101 79.5t81 18.5q43 0 69.5 -10t66.5 -34.5t65.5 -36t54.5 -11.5q27 0 53.5 13.5t67.5 54.5l61 -60 q-61 -61 -103 -79.5t-79 -18.5q-39 0 -67.5 11.5t-75 38t-64.5 34.5t-49 8q-33 0 -53.5 -10t-67.5 -57z" />
<glyph unicode="&#xd6;" horiz-adv-x="1335" d="M168 729q0 229 11 354t142.5 256t346.5 131q100 0 196.5 -38.5t178 -120.5t103 -196t21.5 -386q0 -229 -11 -354t-124 -238q-150 -150 -364 -149q-100 0 -196.5 39t-178.5 120.5t-103.5 195.5t-21.5 386zM279 729q0 -213 11 -326.5t82.5 -185.5t143.5 -101.5t152 -29.5 q164 0 257 93t112.5 198.5t19.5 351.5q0 213 -11.5 327t-101.5 204q-53 53 -124.5 82.5t-151.5 29.5q-164 0 -257.5 -93t-112.5 -198.5t-19 -351.5zM396 1618v157h118v-157h-118zM822 1618v157h118v-157h-118z" />
<glyph unicode="&#xd8;" horiz-adv-x="1335" d="M168 729q0 229 11 354t142.5 256t346.5 131q145 0 266 -71l72 149h108l-100 -209l18 -18q92 -92 113.5 -206t21.5 -386q0 -229 -11 -354t-124 -238q-150 -150 -364 -149q-145 0 -267 71l-71 -149h-109l101 209l-19 18q-92 92 -113.5 206t-21.5 386zM279 729 q0 -182 9 -302t83 -206l518 1084q-96 67 -221 67q-164 0 -257.5 -93t-112.5 -198.5t-19 -351.5zM446 154q96 -68 222 -68q164 0 257 93t112.5 198.5t19.5 351.5q0 182 -9 302t-83 206z" />
<glyph unicode="&#xd9;" horiz-adv-x="1406" d="M205 473v985h110v-971q0 -180 106.5 -290.5t283.5 -110.5q176 0 282.5 108.5t106.5 292.5v971h110v-985q0 -215 -139 -350t-360 -135t-360.5 135t-139.5 350zM465 1898h138l198 -301h-119z" />
<glyph unicode="&#xda;" horiz-adv-x="1406" d="M205 473v985h110v-971q0 -180 106.5 -290.5t283.5 -110.5q176 0 282.5 108.5t106.5 292.5v971h110v-985q0 -215 -139 -350t-360 -135t-360.5 135t-139.5 350zM609 1597l198 301h138l-217 -301h-119z" />
<glyph unicode="&#xdb;" horiz-adv-x="1406" d="M205 473v985h110v-971q0 -180 106.5 -290.5t283.5 -110.5q176 0 282.5 108.5t106.5 292.5v971h110v-985q0 -215 -139 -350t-360 -135t-360.5 135t-139.5 350zM398 1597l252 301h110l252 -301h-117l-190 224l-190 -224h-117z" />
<glyph unicode="&#xdc;" horiz-adv-x="1406" d="M205 473v985h110v-971q0 -180 106.5 -290.5t283.5 -110.5q176 0 282.5 108.5t106.5 292.5v971h110v-985q0 -215 -139 -350t-360 -135t-360.5 135t-139.5 350zM433 1618v157h118v-157h-118zM859 1618v157h118v-157h-118z" />
<glyph unicode="&#xdf;" horiz-adv-x="1126" d="M199 0v1075q0 186 103.5 292t289.5 106q164 0 269.5 -84t105.5 -248t-129 -250q76 -41 103.5 -96.5t27.5 -157.5v-363q0 -130 -80 -204q-43 -39 -86 -54.5t-109 -15.5h-110v92h90q47 0 73.5 9.5t71.5 45t45 140.5v366q0 94 -47 140.5t-133 46.5h-100v92h80q90 0 145 57.5 t55 151.5q0 109 -69.5 174t-214.5 65q-141 0 -209 -80.5t-68 -224.5v-1075h-104z" />
<glyph unicode="&#xe0;" horiz-adv-x="1073" d="M115 270q0 135 91 210t253 75h319v111q0 121 -65.5 181t-212.5 60q-104 0 -165 -27.5t-108 -97.5l-75 66q59 84 142 117.5t206 33.5q193 0 288 -82.5t95 -240.5v-676h-105v98q-61 -61 -128.5 -85.5t-172.5 -24.5q-109 0 -176.5 20.5t-126.5 83t-59 178.5zM219 272 q0 -193 258 -192q82 0 139.5 14.5t109.5 64.5t52 185v127h-307q-252 0 -252 -199zM270 1509h138l198 -301h-119z" />
<glyph unicode="&#xe1;" horiz-adv-x="1073" d="M115 270q0 135 91 210t253 75h319v111q0 121 -65.5 181t-212.5 60q-104 0 -165 -27.5t-108 -97.5l-75 66q59 84 142 117.5t206 33.5q193 0 288 -82.5t95 -240.5v-676h-105v98q-61 -61 -128.5 -85.5t-172.5 -24.5q-109 0 -176.5 20.5t-126.5 83t-59 178.5zM219 272 q0 -193 258 -192q82 0 139.5 14.5t109.5 64.5t52 185v127h-307q-252 0 -252 -199zM414 1208l198 301h138l-217 -301h-119z" />
<glyph unicode="&#xe2;" horiz-adv-x="1073" d="M115 270q0 135 91 210t253 75h319v111q0 121 -65.5 181t-212.5 60q-104 0 -165 -27.5t-108 -97.5l-75 66q59 84 142 117.5t206 33.5q193 0 288 -82.5t95 -240.5v-676h-105v98q-61 -61 -128.5 -85.5t-172.5 -24.5q-109 0 -176.5 20.5t-126.5 83t-59 178.5zM203 1208 l252 301h110l252 -301h-117l-190 224l-190 -224h-117zM219 272q0 -193 258 -192q82 0 139.5 14.5t109.5 64.5t52 185v127h-307q-252 0 -252 -199z" />
<glyph unicode="&#xe3;" horiz-adv-x="1073" d="M115 270q0 135 91 210t253 75h319v111q0 121 -65.5 181t-212.5 60q-104 0 -165 -27.5t-108 -97.5l-75 66q59 84 142 117.5t206 33.5q193 0 288 -82.5t95 -240.5v-676h-105v98q-61 -61 -128.5 -85.5t-172.5 -24.5q-109 0 -176.5 20.5t-126.5 83t-59 178.5zM195 1323 q61 61 101 79.5t81 18.5q43 0 69.5 -10t66.5 -34.5t65.5 -36t54.5 -11.5q27 0 53.5 13.5t67.5 54.5l61 -60q-61 -61 -103 -79.5t-79 -18.5q-39 0 -67.5 11.5t-75 38t-64.5 34.5t-49 8q-33 0 -53.5 -10t-67.5 -57zM219 272q0 -193 258 -192q82 0 139.5 14.5t109.5 64.5 t52 185v127h-307q-252 0 -252 -199z" />
<glyph unicode="&#xe4;" horiz-adv-x="1073" d="M115 270q0 135 91 210t253 75h319v111q0 121 -65.5 181t-212.5 60q-104 0 -165 -27.5t-108 -97.5l-75 66q59 84 142 117.5t206 33.5q193 0 288 -82.5t95 -240.5v-676h-105v98q-61 -61 -128.5 -85.5t-172.5 -24.5q-109 0 -176.5 20.5t-126.5 83t-59 178.5zM219 272 q0 -193 258 -192q82 0 139.5 14.5t109.5 64.5t52 185v127h-307q-252 0 -252 -199zM238 1229v157h118v-157h-118zM664 1229v157h118v-157h-118z" />
<glyph unicode="&#xe5;" horiz-adv-x="1073" d="M115 270q0 135 91 210t253 75h319v111q0 121 -65.5 181t-212.5 60q-104 0 -165 -27.5t-108 -97.5l-75 66q59 84 142 117.5t206 33.5q193 0 288 -82.5t95 -240.5v-676h-105v98q-61 -61 -128.5 -85.5t-172.5 -24.5q-109 0 -176.5 20.5t-126.5 83t-59 178.5zM219 272 q0 -193 258 -192q82 0 139.5 14.5t109.5 64.5t52 185v127h-307q-252 0 -252 -199zM277 1386q0 98 67.5 166t165.5 68t165.5 -67.5t67.5 -166.5q0 -96 -67.5 -165.5t-165.5 -69.5q-96 0 -164.5 68.5t-68.5 166.5zM360 1386q0 -61 44.5 -105t105.5 -44t105.5 44t44.5 105 t-43.5 104.5t-106.5 43.5q-59 0 -104.5 -43t-45.5 -105z" />
<glyph unicode="&#xe6;" horiz-adv-x="1708" d="M115 270q0 135 91 210t253 75h319v111q0 121 -65.5 181t-212.5 60q-104 0 -165 -27.5t-108 -97.5l-75 66q59 84 142 117.5t206 33.5q279 0 354 -174q104 174 320 174q184 0 289.5 -128t105.5 -353v-47h-686q0 -188 82 -288.5t239 -100.5q154 0 273 119l77 -62 q-78 -78 -158.5 -114.5t-199.5 -36.5q-250 0 -352 184q-61 -98 -146.5 -141t-220.5 -43q-109 0 -176.5 20.5t-126.5 83t-59 178.5zM219 272q0 -193 258 -192q82 0 139.5 14.5t109.5 64.5t52 185v127h-307q-252 0 -252 -199zM883 555h581q0 63 -7 99t-27 87 q-33 78 -101.5 122t-154.5 44t-155 -44t-95.5 -108.5t-33.5 -98t-7 -101.5z" />
<glyph unicode="&#xe7;" horiz-adv-x="1019" d="M141 494q0 236 117 370.5t317 134.5q106 0 175 -31.5t151 -119.5l-72 -66q-63 72 -118.5 98.5t-135.5 26.5q-172 0 -250.5 -114.5t-78.5 -298.5q0 -102 14 -165t78.5 -156t236.5 -93q80 0 135.5 26.5t118.5 98.5l72 -66q-78 -86 -151 -118.5t-175 -32.5 q-201 0 -317.5 135t-116.5 371zM371 -451l147 308h113l-131 -308h-129z" />
<glyph unicode="&#xe8;" horiz-adv-x="1071" d="M141 494q0 240 104.5 372.5t291.5 132.5q184 0 289.5 -128t105.5 -353v-47h-686q0 -188 82 -288.5t239 -100.5q154 0 273 119l78 -62q-78 -78 -159 -114.5t-198 -36.5q-205 0 -312.5 130t-107.5 376zM246 555h581q0 63 -7 99t-27 87q-33 78 -101.5 122t-154.5 44 t-155 -44t-95.5 -108.5t-33.5 -98t-7 -101.5zM301 1509h138l198 -301h-119z" />
<glyph unicode="&#xe9;" horiz-adv-x="1071" d="M141 494q0 240 104.5 372.5t291.5 132.5q184 0 289.5 -128t105.5 -353v-47h-686q0 -188 82 -288.5t239 -100.5q154 0 273 119l78 -62q-78 -78 -159 -114.5t-198 -36.5q-205 0 -312.5 130t-107.5 376zM246 555h581q0 63 -7 99t-27 87q-33 78 -101.5 122t-154.5 44 t-155 -44t-95.5 -108.5t-33.5 -98t-7 -101.5zM445 1208l198 301h138l-217 -301h-119z" />
<glyph unicode="&#xea;" horiz-adv-x="1071" d="M141 494q0 240 104.5 372.5t291.5 132.5q184 0 289.5 -128t105.5 -353v-47h-686q0 -188 82 -288.5t239 -100.5q154 0 273 119l78 -62q-78 -78 -159 -114.5t-198 -36.5q-205 0 -312.5 130t-107.5 376zM234 1208l252 301h110l252 -301h-117l-190 224l-190 -224h-117z M246 555h581q0 63 -7 99t-27 87q-33 78 -101.5 122t-154.5 44t-155 -44t-95.5 -108.5t-33.5 -98t-7 -101.5z" />
<glyph unicode="&#xeb;" horiz-adv-x="1071" d="M141 494q0 240 104.5 372.5t291.5 132.5q184 0 289.5 -128t105.5 -353v-47h-686q0 -188 82 -288.5t239 -100.5q154 0 273 119l78 -62q-78 -78 -159 -114.5t-198 -36.5q-205 0 -312.5 130t-107.5 376zM246 555h581q0 63 -7 99t-27 87q-33 78 -101.5 122t-154.5 44 t-155 -44t-95.5 -108.5t-33.5 -98t-7 -101.5zM269 1229v157h118v-157h-118zM695 1229v157h118v-157h-118z" />
<glyph unicode="&#xec;" horiz-adv-x="501" d="M198 1509h138l198 -301h-119zM199 0v987h104v-987h-104z" />
<glyph unicode="&#xed;" horiz-adv-x="501" d="M199 0v987h104v-987h-104zM199 1208l198 301h138l-217 -301h-119z" />
<glyph unicode="&#xee;" horiz-adv-x="501" d="M199 0v987h104v-987h-104zM199 1208l252 301h110l252 -301h-117l-190 224l-190 -224h-117z" />
<glyph unicode="&#xef;" horiz-adv-x="501" d="M199 0v987h104v-987h-104zM199 1229v157h118v-157h-118zM625 1229v157h118v-157h-118z" />
<glyph unicode="&#xf1;" horiz-adv-x="1144" d="M199 0v987h104v-117q111 129 291 129q164 0 264 -96t100 -272v-631h-104v612q0 295 -272 295q-131 0 -205 -77.5t-74 -217.5v-612h-104zM267 1323q61 61 101 79.5t81 18.5q43 0 69.5 -10t66.5 -34.5t65.5 -36t54.5 -11.5q27 0 53.5 13.5t67.5 54.5l61 -60 q-61 -61 -103 -79.5t-79 -18.5q-39 0 -67.5 11.5t-75 38t-64.5 34.5t-49 8q-33 0 -53.5 -10t-67.5 -57z" />
<glyph unicode="&#xf2;" horiz-adv-x="1077" d="M272 494q0 131 24.5 227t116 187t257.5 91t256 -90t115.5 -190.5t25.5 -224.5q0 -131 -24.5 -227.5t-98.5 -170.5q-109 -109 -274 -108q-166 0 -256 90t-116 190.5t-26 225.5zM272 1509h138l198 -301h-119zM377 494q0 -143 21.5 -214t86 -135.5t185.5 -64.5t184 63.5 t85.5 135t22.5 215.5q0 143 -21.5 213.5t-66.5 115.5q-84 84 -204 84q-121 0 -184.5 -63.5t-86 -135t-22.5 -214.5z" />
<glyph unicode="&#xf3;" horiz-adv-x="1077" d="M141 494q0 131 24.5 227t116 187t257.5 91t256 -90t115.5 -190.5t25.5 -224.5q0 -131 -24.5 -227.5t-98.5 -170.5q-109 -109 -274 -108q-166 0 -256 90t-116 190.5t-26 225.5zM246 494q0 -143 21.5 -214t86 -135.5t185.5 -64.5t184 63.5t85.5 135t22.5 215.5 q0 143 -21.5 213.5t-66.5 115.5q-84 84 -204 84q-121 0 -184.5 -63.5t-86 -135t-22.5 -214.5zM443 1208l198 301h138l-217 -301h-119z" />
<glyph unicode="&#xf4;" horiz-adv-x="1077" d="M141 494q0 131 24.5 227t116 187t257.5 91t256 -90t115.5 -190.5t25.5 -224.5q0 -131 -24.5 -227.5t-98.5 -170.5q-109 -109 -274 -108q-166 0 -256 90t-116 190.5t-26 225.5zM232 1208l252 301h110l252 -301h-117l-190 224l-190 -224h-117zM246 494q0 -143 21.5 -214 t86 -135.5t185.5 -64.5t184 63.5t85.5 135t22.5 215.5q0 143 -21.5 213.5t-66.5 115.5q-84 84 -204 84q-121 0 -184.5 -63.5t-86 -135t-22.5 -214.5z" />
<glyph unicode="&#xf5;" horiz-adv-x="1077" d="M141 494q0 131 24.5 227t116 187t257.5 91t256 -90t115.5 -190.5t25.5 -224.5q0 -131 -24.5 -227.5t-98.5 -170.5q-109 -109 -274 -108q-166 0 -256 90t-116 190.5t-26 225.5zM224 1323q61 61 101 79.5t81 18.5q43 0 69.5 -10t66.5 -34.5t65.5 -36t54.5 -11.5 q27 0 53.5 13.5t67.5 54.5l61 -60q-61 -61 -103 -79.5t-79 -18.5q-39 0 -67.5 11.5t-75 38t-64.5 34.5t-49 8q-33 0 -53.5 -10t-67.5 -57zM246 494q0 -143 21.5 -214t86 -135.5t185.5 -64.5t184 63.5t85.5 135t22.5 215.5q0 143 -21.5 213.5t-66.5 115.5q-84 84 -204 84 q-121 0 -184.5 -63.5t-86 -135t-22.5 -214.5z" />
<glyph unicode="&#xf6;" horiz-adv-x="1077" d="M141 494q0 131 24.5 227t116 187t257.5 91t256 -90t115.5 -190.5t25.5 -224.5q0 -131 -24.5 -227.5t-98.5 -170.5q-109 -109 -274 -108q-166 0 -256 90t-116 190.5t-26 225.5zM246 494q0 -143 21.5 -214t86 -135.5t185.5 -64.5t184 63.5t85.5 135t22.5 215.5 q0 143 -21.5 213.5t-66.5 115.5q-84 84 -204 84q-121 0 -184.5 -63.5t-86 -135t-22.5 -214.5zM267 1229v157h118v-157h-118zM693 1229v157h118v-157h-118z" />
<glyph unicode="&#xf7;" d="M109 492v96h835v-96h-835zM455 123v143h143v-143h-143zM455 813v143h143v-143h-143z" />
<glyph unicode="&#xf8;" horiz-adv-x="1077" d="M141 494q0 131 24.5 227t116 187t257.5 91q123 0 215 -61l82 139h98l-115 -192q66 -70 91.5 -170.5t25.5 -220.5q0 -131 -24.5 -227.5t-98.5 -170.5q-109 -109 -274 -108q-121 0 -215 59l-82 -137h-99l115 192q-66 70 -91.5 170.5t-25.5 221.5zM246 494q0 -106 11 -175 t54 -129l394 666q-74 51 -166 51q-121 0 -184.5 -63.5t-86 -135t-22.5 -214.5zM373 131q74 -51 166 -51q121 0 184 63.5t85.5 135t22.5 215.5q0 106 -11 175t-54 128z" />
<glyph unicode="&#xf9;" horiz-adv-x="1144" d="M186 356v631h105v-612q0 -295 272 -295q131 0 205 78t74 217v612h104v-987h-104v117q-111 -129 -291 -129q-164 0 -264.5 96t-100.5 272zM325 1509h138l198 -301h-119z" />
<glyph unicode="&#xfa;" horiz-adv-x="1144" d="M186 356v631h105v-612q0 -295 272 -295q131 0 205 78t74 217v612h104v-987h-104v117q-111 -129 -291 -129q-164 0 -264.5 96t-100.5 272zM469 1208l198 301h138l-217 -301h-119z" />
<glyph unicode="&#xfb;" horiz-adv-x="1144" d="M186 356v631h105v-612q0 -295 272 -295q131 0 205 78t74 217v612h104v-987h-104v117q-111 -129 -291 -129q-164 0 -264.5 96t-100.5 272zM258 1208l252 301h110l252 -301h-117l-190 224l-190 -224h-117z" />
<glyph unicode="&#xfc;" horiz-adv-x="1144" d="M186 356v631h105v-612q0 -295 272 -295q131 0 205 78t74 217v612h104v-987h-104v117q-111 -129 -291 -129q-164 0 -264.5 96t-100.5 272zM293 1229v157h118v-157h-118zM719 1229v157h118v-157h-118z" />
<glyph unicode="&#xff;" horiz-adv-x="880" d="M29 987h114l297 -864l297 864h115l-459 -1255q-29 -80 -65.5 -114t-85.5 -49t-103 -15h-49v92h39q82 0 117 28.5t63 106.5l80 219zM168 1229v157h118v-157h-118zM594 1229v157h118v-157h-118z" />
<glyph unicode="&#x152;" horiz-adv-x="2041" d="M168 729q0 229 11 354t142.5 256t346.5 131q240 0 389 -186v174h864v-96h-756l2 -584h641v-86h-641l-2 -596h762v-96h-870v174q-150 -186 -389 -186q-100 0 -196.5 39t-178.5 120.5t-103.5 195.5t-21.5 386zM279 729q0 -213 11 -326.5t82.5 -185.5t143.5 -101.5 t152 -29.5q164 0 257 93t112.5 198.5t19.5 351.5q0 213 -11.5 327t-101.5 204q-53 53 -124.5 82.5t-151.5 29.5q-164 0 -257.5 -93t-112.5 -198.5t-19 -351.5z" />
<glyph unicode="&#x153;" horiz-adv-x="1761" d="M141 494q0 131 24.5 227t116 187t257.5 91q117 0 209 -56t139 -159q100 215 340 215q184 0 289.5 -128t105.5 -353v-47h-686q0 -188 82 -288.5t239 -100.5q154 0 273 119l78 -62q-78 -78 -159 -114.5t-198 -36.5q-264 0 -364 215q-47 -102 -139.5 -158.5t-208.5 -56.5 q-166 0 -256 90t-116 190.5t-26 225.5zM246 494q0 -143 21.5 -214t86 -135.5t185.5 -64.5t184 63.5t85.5 135t22.5 215.5q0 143 -21.5 213.5t-66.5 115.5q-84 84 -204 84q-121 0 -184.5 -63.5t-86 -135t-22.5 -214.5zM936 555h582q0 63 -7.5 99t-27.5 87q-33 78 -101.5 122 t-154.5 44t-154.5 -44t-95.5 -108.5t-34 -98t-7 -101.5z" />
<glyph unicode="&#x178;" horiz-adv-x="1011" d="M20 1458h119l371 -737l362 737h119l-430 -854v-604h-110v604zM234 1618v157h118v-157h-118zM660 1618v157h118v-157h-118z" />
<glyph unicode="&#x2000;" horiz-adv-x="998" />
<glyph unicode="&#x2001;" horiz-adv-x="1997" />
<glyph unicode="&#x2002;" horiz-adv-x="998" />
<glyph unicode="&#x2003;" horiz-adv-x="1997" />
<glyph unicode="&#x2004;" horiz-adv-x="665" />
<glyph unicode="&#x2005;" horiz-adv-x="499" />
<glyph unicode="&#x2006;" horiz-adv-x="332" />
<glyph unicode="&#x2007;" horiz-adv-x="332" />
<glyph unicode="&#x2008;" horiz-adv-x="249" />
<glyph unicode="&#x2009;" horiz-adv-x="399" />
<glyph unicode="&#x200a;" horiz-adv-x="110" />
<glyph unicode="&#x2010;" horiz-adv-x="872" d="M168 492v96h537v-96h-537z" />
<glyph unicode="&#x2011;" horiz-adv-x="872" d="M168 492v96h537v-96h-537z" />
<glyph unicode="&#x2012;" horiz-adv-x="872" d="M168 492v96h537v-96h-537z" />
<glyph unicode="&#x2013;" d="M109 492v96h835v-96h-835z" />
<glyph unicode="&#x2014;" horiz-adv-x="1787" d="M168 492v96h1452v-96h-1452z" />
<glyph unicode="&#x2018;" horiz-adv-x="532" d="M195 1315v143l143 144v-287h-143z" />
<glyph unicode="&#x2019;" horiz-adv-x="532" d="M195 1171v287h143v-143z" />
<glyph unicode="&#x201a;" horiz-adv-x="532" d="M195 -143v286h143v-143z" />
<glyph unicode="&#x201c;" horiz-adv-x="851" d="M195 1315v143l143 144v-287h-143zM514 1315v143l143 144v-287h-143z" />
<glyph unicode="&#x201d;" horiz-adv-x="851" d="M195 1171v287h143v-143zM514 1171v287h143v-143z" />
<glyph unicode="&#x201e;" horiz-adv-x="851" d="M195 -143v286h143v-143zM514 -143v286h143v-143z" />
<glyph unicode="&#x2022;" horiz-adv-x="1118" d="M225 684q0 139 97.5 236.5t236.5 97.5t236.5 -97.5t97.5 -236.5t-97.5 -236.5t-236.5 -97.5t-236.5 97.5t-97.5 236.5z" />
<glyph unicode="&#x2026;" horiz-adv-x="1482" d="M195 0v152h151v-152h-151zM666 0v152h151v-152h-151zM1137 0v152h151v-152h-151z" />
<glyph unicode="&#x202f;" horiz-adv-x="399" />
<glyph unicode="&#x2039;" horiz-adv-x="655" d="M86 543l401 401v-135l-266 -266l266 -267v-135z" />
<glyph unicode="&#x203a;" horiz-adv-x="655" d="M168 141v135l266 267l-266 266v135l401 -401z" />
<glyph unicode="&#x205f;" horiz-adv-x="499" />
<glyph unicode="&#x2122;" horiz-adv-x="1656" d="M66 1374v84h589v-84h-249v-790h-91v790h-249zM817 584v874h90l273 -553l272 553h90v-874h-90v671l-225 -446h-94l-226 446v-671h-90z" />
<glyph unicode="&#xe000;" horiz-adv-x="983" d="M0 0v983h983v-983h-983z" />
</font>
</defs>
</svg>
